# Blender v2.93.5 OBJ File: ''
# www.blender.org
mtllib Heart.mtl
o Cylinder.001_Cylinder.003
v 0.161169 -0.181219 0.440000
v -0.157659 -0.181219 0.440000
v -0.157659 1.033345 0.440000
v 0.161169 1.033345 0.440000
v -0.157659 1.210714 1.031128
v -0.157659 1.246482 0.737235
v -0.261826 1.197391 0.707512
v -0.261826 1.165201 0.972015
v 0.161169 0.210643 0.918870
v -0.157659 0.210643 0.918870
v 0.161169 0.883424 1.314251
v -0.157659 0.883424 1.314251
v -0.157659 0.556134 1.271832
v 0.161169 0.556134 1.271832
v 0.161169 1.246482 0.737235
v 0.161169 1.210714 1.031128
v 0.261169 1.165201 0.972015
v 0.261169 1.197391 0.707512
v 0.161169 1.210715 -0.151128
v 0.161169 1.246482 0.142765
v 0.261169 1.197391 0.172489
v 0.261169 1.165201 -0.092015
v -0.157659 0.210643 -0.038870
v 0.161169 0.210643 -0.038870
v -0.157659 0.883424 -0.434251
v 0.161169 0.883424 -0.434251
v 0.161169 0.556134 -0.391832
v -0.157659 0.556134 -0.391832
v -0.261826 -0.087539 0.440000
v -0.261826 0.265136 0.009017
v -0.157659 1.246482 0.142765
v -0.157659 1.210715 -0.151128
v 0.440328 1.021507 0.785388
v 0.440328 1.042405 0.613670
v 0.261169 1.005569 0.440000
v 0.440328 0.917873 0.440000
v 0.440328 1.042406 0.266330
v 0.261169 0.265136 0.870983
v 0.261169 0.576078 1.188649
v 0.261169 0.870639 -0.346826
v 0.261169 0.576078 -0.308649
v 0.261169 0.870639 1.226826
v 0.261169 -0.087539 0.440000
v 0.261169 0.265136 0.009017
v -0.261826 1.005569 0.440000
v -0.261826 0.265136 0.870983
v -0.261826 0.576078 1.188649
v -0.261826 0.870639 1.226826
v -0.261826 1.197391 0.172489
v -0.261826 1.165201 -0.092015
v -0.261826 0.870639 -0.346826
v -0.261826 0.576078 -0.308649
v 0.440328 0.830276 -0.070812
v 0.440328 0.639045 -0.046028
v 0.440328 0.639045 0.926028
v 0.440328 0.830276 0.950812
v 0.440328 1.021507 0.094613
v 0.440328 0.437180 0.160203
v 0.440328 0.208220 0.440000
v 0.440328 0.437179 0.719797
v 0.571800 0.755577 0.440000
v -0.442962 1.021507 0.094613
v -0.442962 1.042405 0.266330
v -0.442962 0.917873 0.440000
v -0.442962 1.042405 0.613670
v -0.442962 0.830276 0.950812
v -0.442962 0.639045 0.926028
v -0.442962 0.639045 -0.046027
v -0.442962 0.830276 -0.070812
v -0.442962 1.021507 0.785388
v -0.442962 0.437180 0.719797
v -0.442962 0.208220 0.440000
v -0.442962 0.437179 0.160203
v -0.574434 0.755577 0.440000
vn 0.0000 0.0000 -1.0000
vn -0.4488 0.8871 0.1080
vn 0.0000 -0.7739 0.6333
vn 0.0000 -0.1285 0.9917
vn 0.4636 0.8796 0.1070
vn 0.0000 -0.7146 0.6995
vn 0.0000 0.9927 0.1208
vn 0.0000 0.8127 -0.5827
vn 0.0000 0.6542 0.7563
vn 0.4636 0.8796 -0.1070
vn 0.0000 -0.7739 -0.6333
vn 0.0000 -0.1285 -0.9917
vn -0.5713 -0.6352 -0.5198
vn 0.0000 -0.7146 -0.6995
vn 0.0000 0.9927 -0.1208
vn 0.0000 0.6542 -0.7563
vn 0.0000 0.8127 0.5827
vn 0.6779 0.7298 0.0888
vn 0.3696 0.7551 0.5415
vn 0.2202 0.7927 0.5684
vn 0.5866 -0.5787 0.5665
vn 0.6479 -0.0979 -0.7554
vn 0.5973 0.5247 0.6065
vn 0.5973 0.5247 -0.6065
vn 0.5870 -0.6266 0.5127
vn 0.2202 0.7927 -0.5684
vn 0.6479 -0.0979 0.7554
vn 0.5870 -0.6266 -0.5127
vn 0.5866 -0.5787 -0.5665
vn -1.0000 0.0000 0.0000
vn -0.2118 0.7942 0.5695
vn -0.5713 -0.6352 0.5198
vn -0.6325 -0.0996 0.7682
vn -0.4489 0.8871 -0.1080
vn -0.5709 -0.5867 0.5743
vn -0.5816 0.5322 -0.6152
vn -0.5816 0.5322 0.6152
vn -0.6325 -0.0996 -0.7682
vn -0.2118 0.7942 -0.5695
vn -0.5709 -0.5867 -0.5743
vn 0.8319 -0.0713 -0.5504
vn 0.8319 -0.0713 0.5504
vn 0.7954 0.3965 -0.4583
vn 0.3696 0.7551 -0.5415
vn 0.7875 -0.4770 -0.3903
vn 0.7875 -0.4770 0.3903
vn 0.7872 -0.4407 -0.4314
vn 0.7954 0.3965 0.4583
vn 0.7872 -0.4407 0.4314
vn 0.6779 0.7298 -0.0888
vn 0.7082 0.5737 -0.4114
vn 0.9573 0.1892 -0.2187
vn 0.9551 -0.2294 -0.1877
vn 0.9551 -0.2294 0.1877
vn 0.9550 -0.2120 -0.2075
vn 0.9573 0.1892 0.2187
vn 0.9550 -0.2120 0.2075
vn 0.9187 0.3922 -0.0477
vn 0.7082 0.5737 0.4114
vn 0.9186 0.3922 0.0477
vn 0.9667 -0.0329 -0.2536
vn 0.9667 -0.0329 0.2536
vn -0.6738 0.7335 -0.0893
vn -0.3661 0.7562 -0.5423
vn -0.8290 -0.0719 0.5546
vn -0.8290 -0.0719 -0.5546
vn -0.6738 0.7335 0.0893
vn -0.3661 0.7562 0.5423
vn -0.7842 -0.4803 0.3930
vn -0.7842 -0.4803 -0.3930
vn -0.7839 -0.4437 0.4343
vn -0.7922 0.3992 -0.4615
vn -0.7839 -0.4437 -0.4343
vn -0.7922 0.3992 0.4615
vn -0.7082 0.5737 0.4114
vn -0.9573 0.1892 0.2187
vn -0.9551 -0.2294 0.1877
vn -0.9551 -0.2294 -0.1877
vn -0.9550 -0.2120 0.2075
vn -0.9573 0.1892 -0.2187
vn -0.9550 -0.2120 -0.2075
vn -0.9187 0.3922 0.0477
vn -0.7082 0.5737 -0.4114
vn -0.9186 0.3922 -0.0477
vn -0.9667 -0.0329 0.2536
vn -0.9667 -0.0329 -0.2536
vn -0.4489 0.8871 0.1080
usemtl Material.003
s 1
f 2//1 4//1 1//1
f 6//2 8//2 5//2
f 10//3 1//3 9//3
f 12//4 14//4 11//4
f 15//5 17//5 18//5
f 13//6 9//6 14//6
f 6//7 16//7 15//7
f 3//8 15//8 4//8
f 5//9 11//9 16//9
f 20//10 22//10 19//10
f 24//11 2//11 23//11
f 26//12 28//12 25//12
f 23//13 29//13 30//13
f 27//14 23//14 28//14
f 20//15 32//15 31//15
f 19//16 25//16 32//16
f 4//17 31//17 3//17
f 18//18 33//18 34//18
f 35//19 37//19 21//19
f 4//20 21//20 20//20
f 9//21 39//21 14//21
f 27//22 40//22 41//22
f 16//23 42//23 17//23
f 19//24 40//24 26//24
f 9//25 43//25 38//25
f 4//26 18//26 35//26
f 14//27 42//27 11//27
f 24//28 43//28 1//28
f 24//29 41//29 44//29
f 47//30 48//30 8//30
f 45//30 50//30 52//30
f 3//31 49//31 45//31
f 10//32 29//32 2//32
f 13//33 48//33 47//33
f 31//34 50//34 49//34
f 10//35 47//35 46//35
f 32//36 51//36 50//36
f 5//37 48//37 12//37
f 28//38 51//38 25//38
f 3//39 7//39 6//39
f 23//40 52//40 28//40
f 41//41 53//41 54//41
f 39//42 56//42 42//42
f 22//43 53//43 40//43
f 35//44 34//44 36//44
f 44//45 59//45 43//45
f 38//46 59//46 60//46
f 44//47 54//47 58//47
f 17//48 56//48 33//48
f 38//49 55//49 39//49
f 21//50 57//50 22//50
f 36//51 34//51 61//51
f 53//52 57//52 61//52
f 59//53 58//53 61//53
f 60//54 59//54 61//54
f 58//55 54//55 61//55
f 33//56 56//56 61//56
f 55//57 60//57 61//57
f 57//58 37//58 61//58
f 37//59 36//59 61//59
f 34//60 33//60 61//60
f 54//61 53//61 61//61
f 56//62 55//62 61//62
f 49//63 62//63 63//63
f 45//64 65//64 7//64
f 47//65 66//65 67//65
f 52//66 69//66 51//66
f 7//67 70//67 8//67
f 45//68 63//68 64//68
f 46//69 72//69 29//69
f 30//70 72//70 73//70
f 46//71 67//71 71//71
f 50//72 69//72 62//72
f 30//73 68//73 52//73
f 8//74 66//74 48//74
f 64//75 63//75 74//75
f 66//76 70//76 74//76
f 72//77 71//77 74//77
f 73//78 72//78 74//78
f 71//79 67//79 74//79
f 62//80 69//80 74//80
f 68//81 73//81 74//81
f 70//82 65//82 74//82
f 65//83 64//83 74//83
f 63//84 62//84 74//84
f 67//85 66//85 74//85
f 69//86 68//86 74//86
f 2//1 3//1 4//1
f 6//2 7//87 8//2
f 10//3 2//3 1//3
f 12//4 13//4 14//4
f 15//5 16//5 17//5
f 13//6 10//6 9//6
f 6//7 5//7 16//7
f 3//8 6//8 15//8
f 5//9 12//9 11//9
f 20//10 21//10 22//10
f 24//11 1//11 2//11
f 26//12 27//12 28//12
f 23//13 2//13 29//13
f 27//14 24//14 23//14
f 20//15 19//15 32//15
f 19//16 26//16 25//16
f 4//17 20//17 31//17
f 18//18 17//18 33//18
f 35//19 36//19 37//19
f 4//20 35//20 21//20
f 9//21 38//21 39//21
f 27//22 26//22 40//22
f 16//23 11//23 42//23
f 19//24 22//24 40//24
f 9//25 1//25 43//25
f 4//26 15//26 18//26
f 14//27 39//27 42//27
f 24//28 44//28 43//28
f 24//29 27//29 41//29
f 7//30 45//30 8//30
f 45//30 29//30 46//30
f 46//30 47//30 45//30
f 45//30 47//30 8//30
f 30//30 29//30 45//30
f 45//30 49//30 50//30
f 50//30 51//30 52//30
f 52//30 30//30 45//30
f 3//31 31//31 49//31
f 10//32 46//32 29//32
f 13//33 12//33 48//33
f 31//34 32//34 50//34
f 10//35 13//35 47//35
f 32//36 25//36 51//36
f 5//37 8//37 48//37
f 28//38 52//38 51//38
f 3//39 45//39 7//39
f 23//40 30//40 52//40
f 41//41 40//41 53//41
f 39//42 55//42 56//42
f 22//43 57//43 53//43
f 35//44 18//44 34//44
f 44//45 58//45 59//45
f 38//46 43//46 59//46
f 44//47 41//47 54//47
f 17//48 42//48 56//48
f 38//49 60//49 55//49
f 21//50 37//50 57//50
f 49//63 50//63 62//63
f 45//64 64//64 65//64
f 47//65 48//65 66//65
f 52//66 68//66 69//66
f 7//67 65//67 70//67
f 45//68 49//68 63//68
f 46//69 71//69 72//69
f 30//70 29//70 72//70
f 46//71 47//71 67//71
f 50//72 51//72 69//72
f 30//73 73//73 68//73
f 8//74 70//74 66//74
